<mxfile host="65bd71144e">
    <diagram id="oxVAP1BDpZ1PtvtOPXs5" name="Page-1">
        <mxGraphModel dx="1996" dy="786" grid="0" gridSize="10" guides="1" tooltips="1" connect="1" arrows="1" fold="1" page="0" pageScale="1" pageWidth="850" pageHeight="1100" background="#ffffff" math="0" shadow="0">
            <root>
                <mxCell id="0"/>
                <mxCell id="1" parent="0"/>
                <mxCell id="49" value="Azure Cosmos DB&lt;div&gt;NoSQL&lt;/div&gt;" style="image;aspect=fixed;html=1;points=[];align=center;fontSize=18;image=img/lib/azure2/databases/Azure_Cosmos_DB.svg;" vertex="1" parent="1">
                    <mxGeometry x="-423" y="218" width="64" height="64" as="geometry"/>
                </mxCell>
                <mxCell id="65" value="Managed ID" style="edgeStyle=none;html=1;" edge="1" parent="1" source="48" target="64">
                    <mxGeometry relative="1" as="geometry"/>
                </mxCell>
                <mxCell id="48" value="Azure Functions&lt;div&gt;Flex Consumption&lt;/div&gt;" style="image;aspect=fixed;html=1;points=[];align=center;fontSize=18;image=img/lib/azure2/compute/Function_Apps.svg;" vertex="1" parent="1">
                    <mxGeometry x="-675" y="220" width="68" height="60" as="geometry"/>
                </mxCell>
                <mxCell id="51" value="" style="shape=image;verticalLabelPosition=bottom;labelBackgroundColor=default;verticalAlign=top;aspect=fixed;imageAspect=0;image=https://github.com/modelcontextprotocol.png;clipPath=inset(7.33% 8% 5% 9.33%);" vertex="1" parent="1">
                    <mxGeometry x="-718" y="168" width="39.61" height="42" as="geometry"/>
                </mxCell>
                <mxCell id="50" style="edgeStyle=none;html=1;entryX=-0.032;entryY=0.482;entryDx=0;entryDy=0;entryPerimeter=0;" edge="1" parent="1" source="48" target="49">
                    <mxGeometry relative="1" as="geometry"/>
                </mxCell>
                <mxCell id="52" value="Visual Studio Code" style="verticalLabelPosition=bottom;html=1;verticalAlign=top;align=center;strokeColor=none;fillColor=#00BEF2;shape=mxgraph.azure.visual_studio_online;fontSize=18;" vertex="1" parent="1">
                    <mxGeometry x="-930" y="145" width="50" height="43" as="geometry"/>
                </mxCell>
                <mxCell id="54" value="GItHub Copilot" style="shape=image;verticalLabelPosition=bottom;labelBackgroundColor=default;verticalAlign=top;aspect=fixed;imageAspect=0;image=https://seeklogo.com/images/G/github-copilot-logo-C25AFBDF08-seeklogo.com.png;fontSize=18;" vertex="1" parent="1">
                    <mxGeometry x="-935.5" y="218" width="61" height="61" as="geometry"/>
                </mxCell>
                <mxCell id="55" style="edgeStyle=none;html=1;entryX=-0.015;entryY=0.465;entryDx=0;entryDy=0;entryPerimeter=0;" edge="1" parent="1" source="54" target="48">
                    <mxGeometry relative="1" as="geometry"/>
                </mxCell>
                <mxCell id="64" value="Storage Account&#xa;・Blob Storage&#xa;・Queue Storage" style="shape=image;verticalLabelPosition=bottom;labelBackgroundColor=default;verticalAlign=top;aspect=fixed;imageAspect=0;image=data:image/png,iVBORw0KGgoAAAANSUhEUgAAAYAAAAEnCAYAAACg3pTpAAAAAXNSR0IArs4c6QAAAARnQU1BAACxjwv8YQUAAAAJcEhZcwAADsMAAA7DAcdvqGQAAA/YSURBVHhe7d1Nc11HXsfxX59zn59kCclyIskxkpOCgWJYDIspYMPACoqCBW+NF8CSBaxYw4aQYvI0SaqcpBgmkkUsy7Ik617pPp5zWNhOUW1BNDJx/1v9/VT1pu9VlepKfb63++jBVVVVCQCQnMyfAACkgQAAQKIIAAAkigAAQKIIAAAkigAAQKIIAAAkigAAQKIIAAAkigAAQKIIAAAkigAAQKIIAAAkigAAQKIIAAAkigAAQKIIAAAkigAAQKIIAAAkyln8n8BFVel0PtWT2UTP5jOdLeYaFwsV9j5VAAmpZZm6eU2DWl29WkPL9YaW6001sjjfS5sKQCVpVpY6mFzoi+GxPj870cPJufbH5zqZTzUrS/9DAOCNaee51hotvd3q6q1WR9udnn7UX9ZWu6teXlfmnP8hppkKwKIq9XB8ob/b/1ofHB/qZD7znwIApvzk1qr+8s47+qOVdXXymv+waWYCcDqf6dNnT/X33/5K/3lxpuFizpEPAPM6eU13mm39ZHlNf3XnHd1t91SLZCdg4uBqWhb65fmZ/uHgGz0YnerZfMbFH0AULoqF9sbnev/4sf7x0a5O51OVkVy/TARgf3yuD04O9Ytnx5oUC8Xx0gHAc4uq1MFkrH89PtCHp0c6XcRxfB08AJOy0Gdnx3r/+LGmZcHFH0CUFlWpo9lE//R4T99cDDWP4IdWggdgbzzSZ2fH+uXF0H8IAKIyK0v9/PRIn50d68ls4j9sTvAA7I/PdTSb+tMAEK2H43MCcBWH04lO5wQAwM3xeDqO4roWPADPX6g4bpgAwFXEcl0LHoCj2UTPIrljDgBXcfTiz9hYFzwA42LBn3gAcKOMiyKK61rwAAAAwiAAAJAoAgAAiSIAAJAoAgAAiSIAAJAoAgAAiSIAAJAoAgAAiSIAAJAoAgAAiSIAAJAoAgAAiSIAAJAoAgAAiSIAAJAoAgAAiSIAAJAoAgAAiSIAAJAoAgAAiSIAAJAoAgAAiSIAAJAoAgAAiSIAAJAoAgAAiSIAAJAoAgAAiSIAAJAoAgAAiSIAAJAoAgAAiSIAAJAoAgAAiSIAAJAoAgAAiSIAAJAoAgAAiSIAAJAoAgAAiSIAAJAoAgAAiSIAAJAoAgAAiSIAAJAoAgAAiSIAAJAoAgAAiSIAAJAoAgAAiSIAAJAoAgAAiXJVVVX+5Jv0t//xhT5/9tSfBoCo/flb7+gv3r7nT5sSPADHx8eaTqf+NABErdfrqd/v+9OmcAQEAIkysQOYTCb+NABErd/vswMAANhEAAAgUQQAABIV/B7A06dPuQcA4MYZDAbcAwCAFAV+b30lBAAAEkUAACBRwe8BHB0dcQ8AwI0zGAw0GAz8aVPYAQBAokzsAMbjsT8NAFFbWlpiBwAAKQr83vpKCAAAJIoAAECigt8DePLkCfcAANw4S0tLWlpa8qdNYQcAAIkiAACQKI6ArqBWqynPc2UZvQRCK4pCi8VCZVn6D5kSwxFQ8AAcHh6aDYBzTrVaTZ1OR51OR41Gw38KgDeoqirNZjMNh0NNp1MVRWH2xy2XlpZ069Ytf9oU3tL+L5xz6na7WllZ0WAwUL1e958C4A1zzqnRaGh5eVm3bt1Sq9Xyn4JfAwG4RJ7n6nQ66vf7ajQayrJMzjn/aQACcM4pz3O1Wi31+311Oh3W5zWZCEBVVabGywDU63XO/QGj8jxXo9FQu92Wc+6VdRx6xICr2yWcc2o2m7yrAIzLsox7c6+BAFwiyzLlee5PAzDm5XEQrocAAECiggfAPzezMgDEw1+/FkYMggcAAG6iGCJAAAAgUQQAABIVPAD+uZmVASAe/vq1MGIQPAAAgDAIAAAkigAAQKKCB8A/N7MyAMTBX7uWhnXBAwAACIMAAECiTATA3zaFHgDi46/j0CMGJgIAAHjzCAAAJIoAAECiggfAPzezMgDEw1+/FkYMggcAAG6iGCJAAAAgUQQAABIVPAD+uZmVASAe/vq1MGIQPAAAgDAIAAAkigAAQKJMBMA/O7MyAMTBX7tWhnUmAmBNVVUqisKfBmAMa/X1EIBLFEWhyWQSRcGBlLFWX0/wAPhbJgtjsVjo7OxM8/lcFd9YgEllWWo2m2k4HKosy1fWcegRg+ABsGixWOji4kLD4VCTyURFUUTzBQVuuurFm7TxeKzhcKiLiwuVZek/DVfgqsBXtv39fY1GI3/ahCzL1O/31e121Wg0lGX0EgitKApNp1ONRiPTF//V1VWtrq7606YED8DDhw/NBkCSnHNyzvnTAAKzftSyurqqtbU1f9oUAgAAP4AYAsCZBgAkigAAQKIIAAAkysQ9gOFw6E8DQNTW1ta4BwAAsIkAAECiggcg8AkUACQr+D2Avb097gEAuHHW1tZ0+/Ztf9qU4DsAAEAYBAAAEhX8CGh3d5cjIAA3zu3btzkCAgDYxA7ge1xUpcZVqXnYlwnAC5mTGnJquUxNl8nq3+qNYQdAAL7H+7Oh3p+O9Kti4j8E4A3L5DRwuX6z1tQfNLr6Ua2jutE/104ArmB3d1dnZ2f+dHDTqtKH85H+bTbSbjHTpLL5TyeA1NTk1HaZbuc1/X69o581l1Q3uA9YX183H4Dg9wAC9+dS46rUbjHVB7OR9rj4A6YsVGlYFdorZvp8PtYX87FmBq8jFq9tvuABsOi8KvT1YqLdYqYxF3/ApHlV6aCY69P5heZinV6HiQC8/NduVsZ5+XwHsIig4EDKLqpSey/Wqr+OQ48YmAiANc+/qWYqFMcXEUjVQpVGZaGSpXotBOASc1U6Kws2lQButOAB8LdNFkZZVVrw7h+IyKvrOPSIQfAAAMDrsni5jSECBAAAEkUAACBRJgLgn51ZGADiUEnSJWs49IhB8ADE8kIBsIuryPUEDwAAIAwCAACJIgAAkCgTAfBvnoQe4r4EEJdL1nHoEQMTAbAmji8dAMtiiEDwAMTwIgGwjcvI9QQPgCweAbEHACLz6joOPWJgIgAAgDePAABAokwEwN86hR/+ZwjAsuc/vOev47AjBsEDEMsLBcAye9eRGK5twQMAAAiDAABAokwEwD87Cz24CQDExV/DFkYMTATAmji+dADweggAACQqeABi2SoBwE0TPAAyeH7HIRAQk1fXsJVhnYkAWFOTU99lcv4DAEypyamrXI7Vei0E4BJtZdpwddX4pgJMazmnO1mu3H8AV0IALjFwmX43b6rnMr6xAKNqclp1uX7HNVXzH8SVBA+Af2ZmYQyU6ceupfeyhlZcTU258C8UAElSLqklpztZTb+dNfV7WVN1uVfWcegRA65rl8he7AL+Ou/rD/OOtrK62o6XCggtk9R1uXayhn6WdfQnWUdN7tddm6sCp+rrr7/W6empP21CKem8KjVWqbkqFUFfKQDOSZmcGpK6ytRymdl3sRsbG9rY2PCnTTERgJOTE38aAKK2ublpPgBW4wkAUQv83vpKCAAAJIoAAECigt8D+Oqrr7gHAODG2dzc1Obmpj9tCjsAAEgUAQCARBEAAEhU8HsAX375JfcAANw4m5ub2tra8qdNYQcAAIkiAACQKBNHQMfHx/40AERta2uLI6DvE7g/AJCs4AEAAIRBAAAgUcHvATx48MDkPYCiqvRkfKGDi5Eej891PB1rslj4TwPwBjnn1KvV9Ruttu50elrv9LTSbPlPM+Hu3bvm7wEQgEtMioW+PR/pwyeP9O1oqMPxuU5mEwIABObk1K0/D8Dtdlfbg1v68eq6bre7yp2t/wu2tbWlu3fv+tOmcAR0idPpRP/++Fv98/43+sXTx3p0MeLiDxhQqdJoPtPu8Jl+fvit/uW/dvXJkwPNi8J/Kq6AAFziZDrRR0ePNCv5pgIsO5lN9NHRAWv1moIHoKoqc2NWFDqdTlSGPR0D8D3mRaln04mKS9Zx6BGD4AGwqKwqLcrSnwZgTKVKRVVJkVxwrSEAAJAoAgAgbrz5v7bgAfDPzSwMvqOAuPhr2MqwLngAAABhmAiAX83ww/8MAVhWGbyOxMBEAADg9cRxwbWGAABAoggAACQqeAD8czMrA0AsKj3/XbBX13HoYV3wAAAAwiAAAJAoAgAgfhEct1gUPAD+mZmFwY+UAXHh9wCuJ3gAAABhEAAASBQBuEQkuzcAL7ForyV4APxzMwsDQFws3gOoIriWBA8AACAMEwHwq2lhAIhDpedHQP4aDj1iYCIAAPA64rjc2kMAACBRBAAAEhU8AP65mYXBj5QBkblkHVsY1gUPAAAgDAJwiTzL1K3X5eT8hwAYkrtMnVpdjqV6LQTgEq081512VznfVYBpzTzXWqutjDdr1xI8AP6ZmYXRrzX0W4MVtWs1ZUQAMCl3TsuNpt4bLKvmslfWcegRg+ABsGil2dJPb7+tjU5Prfx5BMgAYIOTlDmnfr2hncEt/fT222rkXMqug1ftEplzGjQa+pt77+mP1zd0t9tXu1b3nwbgDXNy6tUbut+/pT97+x396VvvqJXl3K+7JlcF3qt8+umnevLkiT9tQlFVOpqMdTqbalwstChL/ykA3iDnpFqWqZvXtdJs6VajafaYdmdnR9vb2/60KQQAAH4A29vb2tnZ8adN4QgIABIVfAfwySefsAMAcOPs7OywAwAA2EQAACBRBAAAEhX8HsDHH3/MPQAAN87Ozo7u37/vT5vCDgAAEkUAACBRJo6ADg8P/WkAiNr9+/c5AgIA2BQ8AIE3IACQrOBHQB999BFHQABunPv37+vdd9/1p00JvgMAAIQRPAC1Wk15nvvTABCtWK5rwY+AHjx4oEePHmkymfgPAUCUut2utre3tbW15T9kSvAdQKvVUr3Of9sCcHPEcl0LHoB2u61ms+lPA0C0YrmuBQ9Ar9dTu92WM/pv3QDg1+GcU6/XU6vV8h8yJ/g9gKIodHBwoL29PR0fH/sPA0A08jzX+vq67t27p6WlJWVZ8PfY/6fgn12e51peXtb6+rparRY7AQBRqtVqGgwG2tjYUK/XM3/xl4UASFKn09Ha2prW19fV6/VUq9X8pwCASVmWqdVqaXl5WRsbG1pZWYniBrAsHAG9VFWVFouFHj16pP39fY1GIxVFoaqq+HMRAMxwzn13UuGcU7vd1tramu7cuaOVlRX/6aaZCYBeRKAoCl1cXOjk5EQnJycaj8cajUaaz+cqy9L/EAB4Y2q1mprNplqtljqdjtrttlZXV787uYjh2Od/MhWAl8qy1Gw202w202Kx0GKx4OIPIDjnnLIs++43fV8GIYbf+r2MyQAAAH54ce1XAAD/bwgAACSKAABAoggAACSKAABAoggAACSKAABAoggAACSKAABAoggAACSKAABAoggAACSKAABAoggAACSKAABAoggAACSKAABAoggAACSKAABAoggAACSKAABAoggAACSKAABAov4bjETx1Xyb7qgAAAAASUVORK5CYII=;fontSize=18;" vertex="1" parent="1">
                    <mxGeometry x="-681.89" y="463" width="81.79" height="62.83" as="geometry"/>
                </mxCell>
                <mxCell id="66" value="&lt;span style=&quot;color: rgb(63, 63, 63); font-family: Helvetica; font-size: 18px; font-style: normal; font-variant-ligatures: normal; font-variant-caps: normal; font-weight: 400; letter-spacing: normal; orphans: 2; text-align: center; text-indent: 0px; text-transform: none; widows: 2; word-spacing: 0px; -webkit-text-stroke-width: 0px; white-space: nowrap; background-color: rgb(255, 255, 255); text-decoration-thickness: initial; text-decoration-style: initial; text-decoration-color: initial; display: inline !important; float: none;&quot;&gt;MCPツール&lt;/span&gt;" style="text;whiteSpace=wrap;html=1;" vertex="1" parent="1">
                    <mxGeometry x="-682.998947368421" y="175.99578947368428" width="122" height="44" as="geometry"/>
                </mxCell>
                <mxCell id="67" value="&lt;div&gt;&lt;span style=&quot;color: rgb(63, 63, 63); font-size: 18px; text-wrap-mode: nowrap;&quot;&gt;研修受講アンケートデータ&lt;/span&gt;&lt;/div&gt;" style="text;whiteSpace=wrap;html=1;align=center;" vertex="1" parent="1">
                    <mxGeometry x="-503" y="174" width="224" height="44" as="geometry"/>
                </mxCell>
            </root>
        </mxGraphModel>
    </diagram>
</mxfile>